<svg width="400" height="73" viewBox="0 0 517 73" fill="none" xmlns="http://www.w3.org/2000/svg">
<path d="M44.768 20.544L42.848 21.184L34.336 8.576H26.528V51.136L33.248 53.44L31.968 56H12.512V54.016L18.528 49.28V8.576H10.912L2.4 21.184L0.48 20.544V4.544L3.936 5.696H41.312L44.768 4.544V20.544ZM91.106 56H78.946V34.432C78.946 32.0853 78.5833 30.4427 77.858 29.504C77.1327 28.5653 75.8313 28.096 73.954 28.096C72.546 28.096 71.138 28.352 69.73 28.864C68.3647 29.376 66.7433 30.3573 64.866 31.808V51.2L70.626 53.44L69.346 56H51.49V54.016L57.186 49.536V10.176L51.49 6.208V4.224L62.434 0.127998H64.866V28.8L73.634 21.888C74.53 21.5467 75.7033 21.376 77.154 21.376C80.0553 21.376 82.3593 22.272 84.066 24.064C85.7727 25.8133 86.626 28.2027 86.626 31.232V51.2L92.386 53.44L91.106 56ZM119.344 56.128C117.637 56.4693 115.589 56.64 113.2 56.64C110.384 56.64 107.845 55.9147 105.584 54.464C103.365 52.9707 101.616 50.9653 100.336 48.448C99.0987 45.9307 98.48 43.1573 98.48 40.128C98.48 36.8427 99.4827 33.7707 101.488 30.912C103.493 28.0107 105.989 25.7067 108.976 24C112.005 22.2507 114.928 21.376 117.744 21.376C121.797 21.376 124.933 22.976 127.152 26.176C129.413 29.376 130.544 33.6 130.544 38.848H106.864C107.12 42.4747 108.101 45.44 109.808 47.744C111.557 50.048 113.925 51.2 116.912 51.2C119.685 51.2 123.632 49.0453 128.752 44.736L130.672 47.168L119.344 56.128ZM114.032 26.752C109.424 26.752 107.013 29.9093 106.8 36.224H121.776C121.392 33.92 120.987 32.1707 120.56 30.976C120.176 29.7387 119.472 28.736 118.448 27.968C117.467 27.1573 115.995 26.752 114.032 26.752ZM185 4.416C187.261 4.416 189.864 4.736 192.808 5.376C195.795 6.016 197.971 6.69866 199.336 7.424V19.84H196.904C192.979 13.1413 187.773 9.792 181.288 9.792C178.472 9.792 175.891 10.624 173.544 12.288C171.24 13.9093 169.427 16.192 168.104 19.136C166.781 22.0373 166.12 25.3013 166.12 28.928C166.12 33.1093 166.76 36.928 168.04 40.384C169.363 43.84 171.347 46.6133 173.992 48.704C176.68 50.7947 179.987 51.84 183.912 51.84C187.539 51.84 192.744 49.1093 199.528 43.648L201.448 46.72L189.672 55.872C188.093 56.4267 186.557 56.7893 185.064 56.96C183.613 57.1733 182.035 57.28 180.328 57.28C175.848 57.28 171.88 56.192 168.424 54.016C164.968 51.84 162.28 48.8533 160.36 45.056C158.44 41.216 157.48 36.864 157.48 32C157.48 27.008 158.931 22.4 161.832 18.176C164.733 13.9093 168.339 10.56 172.648 8.128C176.957 5.65333 181.075 4.416 185 4.416ZM229.244 21.376C232.06 21.376 234.577 22.1227 236.796 23.616C239.057 25.0667 240.807 27.0507 242.044 29.568C243.324 32.0853 243.964 34.8587 243.964 37.888C243.964 41.1733 242.961 44.2667 240.956 47.168C238.951 50.0267 236.433 52.3307 233.404 54.08C230.417 55.7867 227.516 56.64 224.7 56.64C221.884 56.64 219.345 55.9147 217.084 54.464C214.865 52.9707 213.116 50.9653 211.836 48.448C210.599 45.9307 209.98 43.1573 209.98 40.128C209.98 36.8427 210.983 33.7707 212.988 30.912C214.993 28.0107 217.489 25.7067 220.476 24C223.505 22.2507 226.428 21.376 229.244 21.376ZM225.532 26.752C220.711 26.752 218.3 30.1867 218.3 37.056C218.3 41.1093 219.175 44.5013 220.924 47.232C222.673 49.92 225.169 51.264 228.412 51.264C233.233 51.264 235.644 47.808 235.644 40.896C235.644 36.8853 234.769 33.536 233.02 30.848C231.271 28.1173 228.775 26.752 225.532 26.752ZM277.558 48.32L280.31 43.072L282.229 43.712V57.152L278.71 56H252.918V53.568L274.422 29.696H258.23L255.67 34.304L253.75 33.664V20.864L257.27 22.016H283.062V24.448L261.686 48.32H277.558ZM324.875 24L308.683 56L295.371 72.896L292.939 70.976C295.371 68.3733 297.205 66.0907 298.443 64.128C299.723 62.1653 300.619 60.1813 301.131 58.176C301.643 56.2133 301.899 53.8667 301.899 51.136L293.835 31.616L287.883 28.16V26.176L298.827 20.8L301.259 30.464L309.067 49.536L318.091 30.784L309.579 24.576L310.859 22.016H324.875V24ZM387.365 56H348.965V54.016L354.981 49.28V10.496L348.325 8.256L349.605 5.696H369.061V7.68L362.981 12.416V53.12H379.493L388.901 39.232L390.821 39.872V57.152L387.365 56ZM436.529 56H424.369V49.344L416.241 56.128C415.345 56.4693 414.171 56.64 412.721 56.64C409.819 56.64 407.515 55.7653 405.809 54.016C404.102 52.224 403.249 49.8133 403.249 46.784V31.488L397.553 28.16V26.176L408.497 20.8H410.929V43.584C410.929 45.9307 411.291 47.5733 412.017 48.512C412.742 49.4507 414.043 49.92 415.921 49.92C417.243 49.92 418.545 49.6853 419.825 49.216C421.105 48.704 422.619 47.7227 424.369 46.272V31.488L418.673 28.16V26.176L429.617 20.8H432.049V51.2L437.809 53.44L436.529 56ZM477.311 56H467.775L457.727 42.56L450.623 49.216L456.575 53.504L455.295 56.064H441.279V54.08L455.935 40.128L446.655 28.096L441.023 24.576L442.303 22.016H451.839L461.759 35.264L468.607 28.864L462.655 24.576L463.935 22.016H477.951V24L463.551 37.696L472.895 49.856L478.591 53.44L477.311 56ZM504.969 56.128C503.262 56.4693 501.214 56.64 498.825 56.64C496.009 56.64 493.47 55.9147 491.209 54.464C488.99 52.9707 487.241 50.9653 485.961 48.448C484.724 45.9307 484.105 43.1573 484.105 40.128C484.105 36.8427 485.108 33.7707 487.113 30.912C489.118 28.0107 491.614 25.7067 494.601 24C497.63 22.2507 500.553 21.376 503.369 21.376C507.422 21.376 510.558 22.976 512.777 26.176C515.038 29.376 516.169 33.6 516.169 38.848H492.489C492.745 42.4747 493.726 45.44 495.433 47.744C497.182 50.048 499.55 51.2 502.537 51.2C505.31 51.2 509.257 49.0453 514.377 44.736L516.297 47.168L504.969 56.128ZM499.657 26.752C495.049 26.752 492.638 29.9093 492.425 36.224H507.401C507.017 33.92 506.612 32.1707 506.185 30.976C505.801 29.7387 505.097 28.736 504.073 27.968C503.092 27.1573 501.62 26.752 499.657 26.752Z" fill="black"/>
</svg>
